HIERARCHY
ROOT Hips
{
	OFFSET 0.000000 0.000000 0.000000
	CHANNELS 6 Xposition Yposition Zposition Zrotation Yrotation Xrotation 
	JOINT LHipJoint
	{
		OFFSET 0.000000 0.000000 0.000000
		CHANNELS 3 Zrotation Yrotation Xrotation
		JOINT LeftUpLeg
		{
			OFFSET 1.363060 -1.794630 0.839290
			CHANNELS 3 Zrotation Yrotation Xrotation
			JOINT LeftLeg
			{
				OFFSET 2.448110 -6.726130 0.000000
				CHANNELS 3 Zrotation Yrotation Xrotation
				JOINT LeftFoot
				{
					OFFSET 2.562200 -7.039590 0.000000
					CHANNELS 3 Zrotation Yrotation Xrotation
					JOINT LeftToeBase
					{
						OFFSET 0.157640 -0.433110 2.322550
						CHANNELS 3 Zrotation Yrotation Xrotation
						End Site
						{
							OFFSET 0.000000 0.000000 0.000000
						}
					}
				}
			}
		}
	}
	JOINT RHipJoint
	{
		OFFSET 0.000000 0.000000 0.000000
		CHANNELS 3 Zrotation Yrotation Xrotation
		JOINT RightUpLeg
		{
			OFFSET -1.305520 -1.794630 0.839290
			CHANNELS 3 Zrotation Yrotation Xrotation
			JOINT RightLeg
			{
				OFFSET -2.542530 -6.985550 0.000000
				CHANNELS 3 Zrotation Yrotation Xrotation
				JOINT RightFoot
				{
					OFFSET -2.568260 -7.056230 0.000000
					CHANNELS 3 Zrotation Yrotation Xrotation
					JOINT RightToeBase
					{
						OFFSET -0.164730 -0.452590 2.363150
						CHANNELS 3 Zrotation Yrotation Xrotation
						End Site
						{
							OFFSET 0.000000 0.000000 0.000000
						}
					}
				}
			}
		}
	}
	JOINT LowerBack
	{
		OFFSET 0.000000 0.000000 0.000000
		CHANNELS 3 Zrotation Yrotation Xrotation
		JOINT Spine
		{
			OFFSET 0.028270 2.035590 -0.193380
			CHANNELS 3 Zrotation Yrotation Xrotation
			JOINT Spine1
			{
				OFFSET 0.056720 2.048850 -0.042750
				CHANNELS 3 Zrotation Yrotation Xrotation
				JOINT Neck
				{
					OFFSET 0.000000 0.000000 0.000000
					CHANNELS 3 Zrotation Yrotation Xrotation
					JOINT Neck1
					{
						OFFSET -0.054170 1.746240 0.172020
						CHANNELS 3 Zrotation Yrotation Xrotation
						JOINT Head
						{
							OFFSET 0.104070 1.761360 -0.123970
							CHANNELS 3 Zrotation Yrotation Xrotation
							End Site
							{
								OFFSET 0.000000 0.000000 0.000000
							}
						}
					}
				}
				JOINT LeftShoulder
				{
					OFFSET 0.000000 0.000000 0.000000
					CHANNELS 3 Zrotation Yrotation Xrotation
					JOINT LeftArm
					{
						OFFSET 3.362410 1.200890 -0.311210
						CHANNELS 3 Zrotation Yrotation Xrotation
						JOINT LeftForeArm
						{
							OFFSET 4.983000 -0.000000 -0.000000
							CHANNELS 3 Zrotation Yrotation Xrotation
							JOINT LeftHand
							{
								OFFSET 3.483560 -0.000000 -0.000000
								CHANNELS 3 Zrotation Yrotation Xrotation
								JOINT LeftFingerBase
								{
									OFFSET 0.000000 0.000000 0.000000
									CHANNELS 3 Zrotation Yrotation Xrotation
									JOINT LeftHandIndex1
									{
										OFFSET 0.715260 -0.000000 -0.000000
										CHANNELS 3 Zrotation Yrotation Xrotation
										End Site
										{
											OFFSET 0.000000 0.000000 0.000000
										}
									}
								}
								JOINT LThumb
								{
									OFFSET 0.000000 0.000000 0.000000
									CHANNELS 3 Zrotation Yrotation Xrotation
									End Site
									{
										OFFSET 0.000000 0.000000 0.000000
									}
								}
							}
						}
					}
				}
				JOINT RightShoulder
				{
					OFFSET 0.000000 0.000000 0.000000
					CHANNELS 3 Zrotation Yrotation Xrotation
					JOINT RightArm
					{
						OFFSET -3.136600 1.374050 -0.404650
						CHANNELS 3 Zrotation Yrotation Xrotation
						JOINT RightForeArm
						{
							OFFSET -5.241900 -0.000000 -0.000000
							CHANNELS 3 Zrotation Yrotation Xrotation
							JOINT RightHand
							{
								OFFSET -3.444170 -0.000000 -0.000000
								CHANNELS 3 Zrotation Yrotation Xrotation
								JOINT RightFingerBase
								{
									OFFSET 0.000000 0.000000 0.000000
									CHANNELS 3 Zrotation Yrotation Xrotation
									JOINT RightHandIndex1
									{
										OFFSET -0.622530 -0.000000 -0.000000
										CHANNELS 3 Zrotation Yrotation Xrotation
										End Site
										{
											OFFSET 0.000000 0.000000 0.000000
										}
									}
								}
								JOINT RThumb
								{
									OFFSET 0.000000 0.000000 0.000000
									CHANNELS 3 Zrotation Yrotation Xrotation
									End Site
									{
										OFFSET 0.000000 0.000000 0.000000
									}
								}
							}
						}
					}
				}
			}
		}
	}
}
MOTION
Frames: 6
Frame Time: 0.008333
6.214862 16.288066 2.381705 16.612194 57.427692 22.546655 -9.700349 1.019702 -0.272037 -4.454171 14.104532 -30.121283 -1.302368 1.532954 41.994616 3.845876 23.472206 -13.014288 -2.133301 -0.000000 -11.304200 9.797590 -1.735289 0.779567 16.016107 -2.681223 -9.589099 2.434846 -0.660130 28.534025 -4.237502 -8.754977 -36.832251 -174.418200 0.000000 -18.753300 -4.755802 -0.903032 -3.186719 -1.124602 -0.654867 -2.988265 -4.008222 -0.800258 2.567735 7.326680 -10.280912 -11.329347 -1.539298 -0.067418 -0.980664 0.000000 0.000000 0.000000 -3.918240 25.619793 2.128448 -73.924067 20.358956 11.405983 -3.745751 -30.973603 -0.025837 -7.860775 9.089660 -0.627958 -0.069782 -0.107383 -0.000000 0.000000 0.000000 0.000000 0.000000 0.000000 0.000000 7.046864 -4.478073 0.018832 59.699312 11.404715 5.559535 2.269029 39.078746 -0.000134 -4.339608 4.079616 -0.164875 0.139506 -0.157689 -0.000000 0.000000 0.000000 0.000000 0.000000 0.000000 0.000000 
6.404325 16.366736 2.493230 16.396414 56.093579 22.544332 -9.528163 1.018127 -0.195053 -5.611163 14.020337 -30.581876 -1.367278 1.388273 40.687632 3.949092 23.833346 -13.012552 -2.130700 0.000000 -10.783000 9.976320 -1.840899 1.047455 15.081101 -2.313120 -8.004792 2.420540 -0.474050 26.298891 -3.868132 -7.725563 -35.024122 -175.203000 0.000000 -15.732001 -5.058083 -0.527948 -3.598187 -1.180025 -0.267169 -3.072481 -3.872379 -0.424520 2.556489 7.039023 -10.034637 -11.282525 -1.405120 -0.057890 -0.964001 0.000000 0.000000 0.000000 -4.781848 26.538734 2.097348 -74.503003 21.379772 13.285553 -3.686512 -32.068321 -0.027548 -9.318004 9.380858 -0.771760 -0.052839 -0.115341 -0.000000 0.000000 0.000000 0.000000 0.000000 0.000000 0.000000 6.192647 -3.971932 -0.005228 58.021440 11.947985 6.421760 2.115006 41.136239 -0.001044 -4.092377 3.747054 -0.143467 0.134704 -0.164386 -0.000000 0.000000 0.000000 0.000000 0.000000 0.000000 0.000000 
6.596192 16.453067 2.606827 16.210408 54.810398 22.527889 -9.366316 1.034043 -0.107188 -6.757571 13.904845 -30.921312 -1.446128 1.237249 39.202726 4.005422 23.919390 -12.927047 -2.071600 -0.000000 -10.297300 10.162460 -1.971759 1.296850 14.107402 -2.045145 -6.428902 2.381047 -0.311594 24.064468 -3.462581 -6.720582 -32.827221 -175.998600 -0.000000 -12.151300 -5.328913 -0.141813 -3.994548 -1.231493 0.130154 -3.153222 -3.729042 -0.038487 2.551418 6.726515 -9.914158 -11.245103 -1.259423 -0.047273 -0.949217 0.000000 0.000000 0.000000 -5.675372 27.469498 2.039667 -74.972782 22.366690 14.970642 -3.603624 -33.199554 -0.028256 -10.370371 9.527686 -0.875149 -0.036518 -0.121272 -0.000000 0.000000 0.000000 0.000000 0.000000 0.000000 0.000000 5.306344 -3.613205 -0.031353 56.376219 12.412197 7.246726 1.963385 43.184809 -0.001656 -3.737693 3.389623 -0.119268 0.128170 -0.170448 -0.000000 0.000000 0.000000 0.000000 0.000000 0.000000 0.000000 
6.790167 16.546602 2.721847 16.035899 53.593606 22.471121 -9.221379 1.066321 -0.005556 -7.859830 13.738245 -31.122188 -1.533371 1.082479 37.544577 4.008535 23.736262 -12.660044 -1.914200 -0.000000 -10.432900 10.349208 -2.130338 1.514688 13.118366 -1.900317 -4.870448 2.318300 -0.182249 21.866849 -3.028932 -5.754151 -30.230794 -176.784500 -0.000001 -8.025500 -5.559032 0.250514 -4.364924 -1.277374 0.531622 -3.230330 -3.582175 0.352582 2.544051 6.392453 -9.875990 -11.201878 -1.108769 -0.036351 -0.932308 0.000000 0.000000 0.000000 -6.583343 28.370114 1.958525 -75.373753 23.340316 16.377003 -3.502438 -34.300723 -0.027914 -10.991117 9.551088 -0.932022 -0.021456 -0.125181 -0.000000 0.000000 0.000000 0.000000 0.000000 0.000000 0.000000 4.402610 -3.361784 -0.057533 54.769145 12.778500 8.019712 1.817893 45.177792 -0.001852 -3.280571 3.042681 -0.094679 0.119790 -0.175820 -0.000000 0.000000 0.000000 0.000000 0.000000 0.000000 0.000000 
6.986121 16.646396 2.837928 15.862223 52.452583 22.361706 -9.097136 1.112656 0.111798 -8.895334 13.509507 -31.180750 -1.629586 0.926192 35.734759 3.957207 23.287685 -12.227768 -1.672200 -0.000000 -10.914000 10.529923 -2.316909 1.691861 12.133369 -1.893968 -3.349525 2.235848 -0.093952 19.749756 -2.578893 -4.835597 -27.246142 -177.537601 -0.000001 -3.381600 -5.740932 0.643076 -4.702740 -1.314814 0.930939 -3.301170 -3.430043 0.742580 2.538951 6.036214 -9.912218 -11.150868 -0.953059 -0.025118 -0.912947 0.000000 0.000000 0.000000 -7.483560 29.241624 1.859320 -75.745112 24.276140 17.491593 -3.393163 -35.286392 -0.026677 -11.225418 9.445690 -0.942873 -0.008234 -0.127093 -0.000000 0.000000 0.000000 0.000000 0.000000 0.000000 0.000000 3.475935 -3.214450 -0.086558 53.232795 13.072831 8.737295 1.680509 47.060475 -0.001651 -2.755168 2.720772 -0.071700 0.109901 -0.180468 -0.000000 0.000000 0.000000 0.000000 0.000000 0.000000 0.000000 
7.183804 16.751441 2.955013 15.682747 51.398907 22.192345 -8.996119 1.170975 0.245595 -9.848041 13.214342 -31.096435 -1.732508 0.770483 33.790963 3.852449 22.603584 -11.602569 -1.346300 -0.000000 -11.808400 10.699109 -2.529659 1.822762 11.170393 -2.029950 -1.880594 2.137023 -0.051932 17.747135 -2.127424 -3.979594 -23.887490 1.765600 -0.000000 -1.797700 -5.873350 1.028099 -5.005012 -1.342352 1.320324 -3.364441 -3.272925 1.123756 2.537218 5.661967 -10.002326 -11.087442 -0.794178 -0.013787 -0.890067 0.000000 0.000000 0.000000 -8.352127 30.071563 1.749427 -76.125346 25.172051 18.288502 -3.285661 -36.101861 -0.024806 -11.139311 9.212281 -0.913607 0.002678 -0.127180 -0.000000 0.000000 0.000000 0.000000 0.000000 0.000000 0.000000 2.529392 -3.153187 -0.120413 51.794480 13.301517 9.399390 1.552520 48.794232 -0.001111 -2.194076 2.434632 -0.051529 0.098907 -0.184360 0.000000 0.000000 0.000000 0.000000 0.000000 0.000000 0.000000 
